<?xml version="1.0" encoding="UTF-8"?><svg id="b" xmlns="http://www.w3.org/2000/svg" width="385.62" height="107.13" viewBox="0 0 385.62 107.13"><g id="c"><path d="m17.8,54.19c14.6,5.72,29.54,8.94,45.03,9.54-1.26-.18-2.52-.36-3.78-.53-1.32-.18-2.65-.32-3.96-.55-16.48-2.92-30.98-9.96-43.5-21.06-.3-.27-.56-.63-.72-1C5.25,27.68,1.63,14.23,0,0c16.24,20.37,37.09,31.9,63.08,34.51-4.55,2.73-6.91,6.63-7.67,11.71.96.06,1.82.11,2.68.18,5.93.49,10.11,4.96,10.23,10.91.01.59.09,1.67.27,1.7,1.05.17,2.14.14,3.21.06.15-.01.33-.69.34-1.07.22-7.03-4.04-12.92-10.77-14.93-.28-.08-.55-.17-1.05-.33.5-.77.9-1.53,1.42-2.19,5.02-6.23,15.14-4.98,18.34,2.35.61,1.41,1.34,1.78,2.68,1.63.56-.06,1.14-.01,1.86-.01-.39-2.27-1.21-4.19-2.55-5.78-1.29-1.54-2.84-2.87-4.31-4.33,12.27-1.05,23.91-4.55,34.78-10.51,10.87-5.96,20.06-13.91,27.67-23.72.09.05.19.09.28.14-.56,3.48-1.03,6.98-1.69,10.44-1.93,10.1-4.92,19.87-9.01,29.3-.29.66-.73,1.33-1.27,1.8-12.27,10.78-26.43,17.69-42.49,20.65-2.82.52-5.67.82-8.5,1.32,7.68-.24,15.27-1.27,22.78-2.89,7.54-1.63,14.91-3.81,22.28-6.76-.16.41-.22.66-.34.88-3.89,6.77-8.35,13.15-13.33,19.15-.36.43-.87.79-1.38,1.02-8.66,4.08-17.75,6.67-27.27,7.7-.78.08-1.55.21-2.31.44,8.78-.29,17.41-1.62,26.18-3.7-2.92,3.32-5.7,6.42-9.72,8-2.9,1.14-5.75,2.47-8.72,3.39-2.93.9-5.98,1.39-8.98,2.13,5.44-.26,10.79-1.24,16.09-2.57.08.13.16.26.24.39-5,3.71-9.97,7.47-15.03,11.11-2.23,1.6-4.62,2.97-6.99,4.37-.4.24-1.16.29-1.54.07-7.5-4.38-14.54-9.41-21.12-15.09-.21-.18-.37-.41-.73-.83,5.47,1.32,10.71,2.31,16.09,2.41-2.31-.46-4.63-.86-6.92-1.4-4.4-1.04-8.51-2.84-12.55-4.85-3.28-1.63-5.39-4.47-8.11-7.18,8.56,2.08,16.9,3.33,25.36,3.83.29.02.57,0,.88-.21-2.01-.28-4.02-.53-6.02-.83-8.21-1.22-16.05-3.68-23.56-7.22-.47-.22-.94-.57-1.27-.97-5.07-6.1-9.57-12.59-13.53-19.47-.06-.11-.09-.23-.22-.59Zm50.73-14.14c1.16,1.14,2.06,1.29,2.89.55.72-.64,1.11-1.41.36-2.41-1.09.62-2.12,1.21-3.25,1.86Z" style="fill:#e63335;"/><path d="m314.5,71.85v-36.76h10.52v51.48c-.34.03-.69.1-1.05.1-2.87,0-5.75-.02-8.62.02-.71,0-1.13-.23-1.5-.84-5.94-9.79-11.94-19.54-17.79-29.37-.93-1.57-1.23-3.51-1.82-5.28-.14-.41-.27-.81-.4-1.22-.12.02-.24.03-.36.05v1.42c0,11.17,0,22.33,0,33.5q0,1.73-1.68,1.73c-2.54,0-5.08-.03-7.62.02-.94.02-1.33-.22-1.33-1.24.03-16.42.02-32.83,0-49.25,0-.93.29-1.21,1.22-1.2,2.83.06,5.67.05,8.5,0,.73-.01,1.12.26,1.48.85,5.94,9.79,11.93,19.54,17.79,29.37.89,1.5,1.19,3.35,1.76,5.04.18.54.37,1.08.55,1.61l.34-.03Z" style="fill:#245698;"/><path d="m191.09,35.09c-1.04,2.61-2.02,5.11-3.03,7.61-5.73,14.22-11.47,28.44-17.16,42.68-.41,1.04-.92,1.37-1.99,1.32-2.12-.09-4.25-.05-6.37-.01-.67.01-1.04-.19-1.3-.85-6.7-16.7-13.41-33.39-20.12-50.08-.07-.18-.11-.39-.2-.73,2.83,0,5.56,0,8.3,0q3.1,0,4.25,2.89c3.43,8.52,6.8,17.06,10.34,25.54.92,2.19,1.09,4.28.7,6.53-.13.75-.12,1.52-.18,2.27l.3.05c1.12-2.75,2.24-5.5,3.34-8.25,3.74-9.29,7.49-18.58,11.19-27.88.35-.87.75-1.2,1.7-1.18,3,.06,6,.02,9,.03.36,0,.72.04,1.23.06Z" style="fill:#245698;"/><path d="m248.89,49.3c-.26.59-.53,1.18-.77,1.78-4.62,11.49-9.24,22.97-13.84,34.47-.32.79-.68,1.17-1.61,1.15-3-.07-6-.02-8.99-.03-.36,0-.73-.04-1.26-.08.17-.49.28-.87.43-1.24,6.61-16.42,13.22-32.84,19.81-49.27.3-.75.63-1.11,1.51-1.08,2.2.07,4.41.05,6.62,0,.73-.01,1.09.2,1.38.91,6.66,16.62,13.35,33.24,20.03,49.85.09.22.15.46.25.79-.3.04-.52.11-.75.11-3.21,0-6.41-.02-9.62.02-.74,0-1.1-.24-1.37-.93-3.95-9.87-7.94-19.74-11.89-29.61-.17-.43-.19-.96-.16-1.44.14-1.77.33-3.54.5-5.32-.09-.03-.18-.07-.26-.1Z" style="fill:#245698;"/><path d="m361.9,49.33c-1.18,2.92-2.36,5.83-3.54,8.75-3.69,9.18-7.39,18.35-11.05,27.54-.3.75-.65,1.1-1.53,1.08-3.04-.06-6.08-.02-9.12-.03-.36,0-.72-.05-1.24-.09,1.13-2.82,2.21-5.5,3.29-8.19,5.66-14.07,11.34-28.14,16.97-42.23.36-.89.79-1.18,1.72-1.15,2.12.07,4.25.05,6.37,0,.77-.02,1.18.18,1.48.95,6.63,16.55,13.29,33.09,19.94,49.64.12.3.2.62.34,1.08-3.14,0-6.17.02-9.2,0-2.67-.02-2.01.4-2.99-2.02-3.68-9.09-7.27-18.23-11.03-27.28-.95-2.28-.29-4.41-.21-6.62.02-.45.1-.89.15-1.34-.11-.03-.23-.06-.34-.09Z" style="fill:#245698;"/><path d="m201.54,35.03c3.3,0,6.5-.02,9.7.03.25,0,.57.44.71.74.12.28.04.66.04.99,0,16.04,0,32.08,0,48.11q0,1.77-1.77,1.77c-2.86,0-5.73,0-8.68,0v-51.65Z" style="fill:#245698;"/><path d="m281.87,99.26v7.54h-1.9c-.03-.54-.09-1.07-.1-1.59,0-2.54.02-5.08-.01-7.62,0-.8.26-1.16,1.08-1.06.33.04.67.05,1,0,.91-.14,1.33.26,1.6,1.12.58,1.85,1.27,3.68,2.2,5.55.26-.67.52-1.33.77-2,.26-.7.5-1.41.75-2.11q.96-2.75,4.02-2.46v10.2h-1.89v-7.56c-.13-.01-.26-.02-.39-.04-.78,2.25-1.54,4.51-2.36,6.75-.13.35-.48.76-.82.88-.68.23-1.12-.1-1.34-.84-.62-2.02-1.3-4.03-1.97-6.04-.09-.26-.22-.5-.33-.75-.1.01-.2.03-.3.04Z" style="fill:#245698;"/><path d="m176.91,106.81h-2.04c0-.71,0-1.36,0-2.01,0-2.37.04-4.74-.02-7.11-.02-.94.31-1.17,1.22-1.2,1.21-.05,1.99.25,2.57,1.4.83,1.62,1.86,3.14,2.82,4.7.21.34.44.66.96.91v-6.92h2.01v10.12c-2.4.48-2.59.4-3.81-1.59-1.13-1.83-2.25-3.67-3.37-5.51-.12.02-.23.03-.35.05v7.15Z" style="fill:#245698;"/><path d="m322.38,99.7v7.1h-1.88c-.04-.45-.12-.92-.12-1.4-.01-2.45-.03-4.91.02-7.36,0-.5.34-1.44.46-1.43.95.08,2.1-.65,2.83.56,1.11,1.85,2.24,3.69,3.37,5.54.18.3.41.57.86.78v-6.87h2.04v10.1c-2.49.44-2.6.39-3.84-1.63-1.12-1.83-2.24-3.67-3.36-5.5-.13.04-.25.07-.38.11Z" style="fill:#245698;"/><path d="m363.1,96.28c3.23.02,5.54,2.33,5.5,5.5-.04,3.12-2.34,5.34-5.53,5.35-3.24,0-5.58-2.28-5.57-5.44,0-3.16,2.36-5.43,5.6-5.41Zm-.04,1.85c-2.01,0-3.45,1.48-3.4,3.51.05,2.01,1.43,3.39,3.39,3.39,1.99,0,3.44-1.49,3.39-3.51-.04-1.99-1.44-3.39-3.39-3.39Z" style="fill:#245698;"/><path d="m221.24,100.47v2.13h-4.39v2.16h4.93v2.03h-6.95v-10.19h6.68v1.72h-4.65v2.15h4.37Z" style="fill:#245698;"/><path d="m302.55,96.57h6.7v1.81h-4.66v2.16h4.39v2.04h-4.37v2.15h4.9v2.05h-6.97v-10.22Z" style="fill:#245698;"/><path d="m239.19,97.3c-.65.46-1.13.8-1.63,1.16-.51-.09-1.2-.36-1.86-.27-.47.06-1.15.53-1.24.93-.08.36.42,1.01.83,1.28.54.35,1.25.42,1.86.66,1.06.42,1.86,1.08,1.96,2.33.1,1.31-.35,2.37-1.47,3.09-1.7,1.08-4.09.8-5.72-.73.43-.48.85-.96,1.21-1.36.84.23,1.59.61,2.31.58.53-.03,1.03-.6,1.54-.93-.34-.46-.6-1.04-1.05-1.33-.54-.35-1.25-.42-1.86-.67-1-.42-1.81-.98-1.87-2.24-.07-1.36.45-2.37,1.64-2.96,1.73-.86,3.42-.69,5.35.47Z" style="fill:#245698;"/><path d="m378.36,105.82c.51-.57.92-1.03,1.25-1.4.93.22,1.74.55,2.56.54.44,0,1.15-.52,1.23-.91.08-.37-.42-1.02-.83-1.28-.58-.37-1.32-.46-1.97-.73-1.04-.43-1.87-1.03-1.9-2.34-.03-1.37.54-2.34,1.73-2.91,1.7-.8,3.36-.64,5.06.38-.62.78-.94,1.83-2.29,1.06-.37-.21-1.01-.13-1.45.03-.36.14-.78.58-.82.93-.04.34.3.87.62,1.06.6.35,1.3.52,1.96.75,1.42.51,2.07,1.3,2.11,2.6.04,1.46-.68,2.61-2.01,3.13-1.85.72-3.55.44-5.25-.92Z" style="fill:#245698;"/><path d="m194.42,96.69q2.24-.39,2.95,1.5c.62,1.66,1.25,3.31,2.21,5.01.32-.82.63-1.64.95-2.46.34-.89.68-1.79,1.02-2.68q.67-1.75,2.75-1.38c-1.33,3.25-2.63,6.48-3.98,9.69-.28.66-1.69.77-1.96.13-1.35-3.25-2.63-6.52-3.95-9.82Z" style="fill:#245698;"/><path d="m256.57,96.6v1.76h-2.87v8.41h-2.02v-5.41q0-2.82-2.87-3.07v-1.69h7.76Z" style="fill:#245698;"/><path d="m340.27,98.38v-1.77h7.79v1.74h-2.88v8.47h-2c0-1.01,0-2.03,0-3.05,0-1.41-.03-2.83.01-4.24.03-.84-.22-1.25-1.13-1.15-.57.06-1.14.01-1.79.01Z" style="fill:#245698;"/><path d="m268.8,106.82h-1.9v-10.21h1.9v10.21Z" style="fill:#245698;"/><path d="m161.88,96.58h1.91v10.22h-1.91v-10.22Z" style="fill:#245698;"/><path d="m68.53,40.05c1.13-.65,2.16-1.24,3.25-1.86.75,1,.36,1.77-.36,2.41-.83.74-1.73.59-2.89-.55Z" style="fill:#fff;"/></g></svg>